<svg xmlns="http://www.w3.org/2000/svg" viewBox="0 0 100 21" class="crossSiteBanner_child__1oxjy"><g fill="white" fill-rule="evenodd"><path d="M0 19.9h99.1v1H0z"></path><path fill-rule="nonzero" d="M52.1 4.9l-3.8 9.3-3.8-9.3h-1.4l5.2 12.2 5.2-12.2zM.1 4.9h7.6v2.2H2.5V10h4.7v2.2H2.5v4.6H.1zM12.7 4.8l5.4 12h-2.3l-.6-1.4h-5l-.6 1.4H7.3l5.4-12zm1.5 8.6l-.9-2.1c-.4-.8-.7-2.1-.7-2.1s-.4 1.3-.7 2.1l-.9 2.1h3.2zM18.1 10.9c0-3.5 2.7-6.1 6.1-6.1 2.1 0 3.7.8 4.7 2.4L27 8.5c-.5-.9-1.5-1.5-2.8-1.5-2.1 0-3.6 1.7-3.6 3.9s1.4 3.9 3.6 3.9c1.5 0 2.4-.7 3-1.7l1.9 1.3c-1 1.6-2.7 2.6-4.9 2.6-3.4-.1-6.1-2.7-6.1-6.1zM30.7 4.9h7.8v2.2h-5.4V10h4.8v2.1h-4.8v2.5h5.7v2.2h-8.1zM64.1 4.9h1.2l.1 10.7h5.5v1.2h-6.8zM71.6 12.7V4.9h1.3v7.7c0 2.1 1.1 3.1 3 3.1 1.8 0 3-1 3-3.1V4.9h1.3v7.8c0 2.8-1.8 4.2-4.2 4.2-2.5 0-4.4-1.4-4.4-4.2zM82.9 4.9h7.2V6h-6v4.4h5.3v1.1h-5.3v4.1h6.2v1.2h-7.4zM91.4 14.5l1-.6c.6 1 1.4 1.8 3 1.8 1.4 0 2.5-.8 2.5-2s-.7-1.8-2.2-2.5l-.9-.4c-1.7-.8-2.6-1.6-2.6-3.2 0-1.7 1.3-2.8 3.1-2.8 1.6 0 2.6.7 3.2 1.8l-1 .6c-.5-.7-1.1-1.3-2.2-1.3-1.2 0-1.9.7-1.9 1.7s.6 1.5 1.9 2.1l.9.4c2 .9 3 1.8 3 3.6 0 1.9-1.5 3.1-3.7 3.1-2.2.1-3.5-1.1-4.1-2.3zM57.2 4.6l-5.1 12.1v.1h1.4l.8-2h6l.8 2h1.4L57.2 4.6zm2.5 9h-5l2.5-6.1 2.5 6.1zM99.3 6.3c-.4 0-.7-.3-.7-.7 0-.4.3-.7.7-.7.4 0 .7.3.7.7 0 .4-.3.7-.7.7zm0-1.3c-.3 0-.5.2-.5.6 0 .3.2.6.5.6s.5-.2.5-.6c.1-.3-.2-.6-.5-.6zm-.1 1h-.1v-.8h.3c.2 0 .3.1.3.2s-.1.2-.2.2l.1.4h-.1l-.2-.3h-.1V6zm.1-.4c.1 0 .2 0 .2-.1s-.1-.1-.2-.1h-.2v.2h.2z"></path><g fill-rule="nonzero"><path d="M.5.3s0-.1 0 0L1 .2c.1 0 .1 0 .1.1v1.3h1.6V.3c0-.1 0-.1.1-.1h.5c.1 0 .1 0 .1.1v3.3c0 .1 0 .1-.1.1h-.4c-.1 0-.1 0-.1-.1V2.3H1.1v1.4c0 .1 0 .1-.1.1H.6c-.1 0-.1 0-.1-.1V.3zM3.9 3.6L5.5.2s0-.1.1-.1h.1c.1 0 .1 0 .1.1l1.5 3.4c0 .1 0 .1-.1.1h-.5c-.1 0-.1 0-.1-.1l-.3-.5H4.8l-.3.6c0 .1-.1.1-.1.1H4c-.1 0-.2-.1-.1-.2zm2.1-1l-.5-1.2L5 2.6h1zM7.7.3s0-.1 0 0L9.2.2c.6 0 1.1.5 1.1 1.1 0 .5-.3.8-.7 1l.7 1.3c0 .1 0 .1-.1.1h-.6-.1l-.6-1.3h-.6v1.3c0 .1 0 .1-.1.1h-.5c-.1 0-.1 0-.1-.1V.3h.1zm1.4 1.5c.3 0 .5-.2.5-.5S9.4.8 9.1.8h-.8v1h.8zM11.4.3c0-.1 0-.1 0 0l.2-.1s.1 0 .1.1l1.1 2.4L13.9.3s0-.1.1-.1.1 0 .1.1l.6 3.4c0 .1 0 .1-.1.1h-.5s-.1 0-.1-.1l-.3-1.9-.9 2s0 .1-.1.1h-.1s-.1 0-.1-.1l-.9-2-.3 1.9s0 .1-.1.1h-.5c-.1 0-.1 0-.1-.1l.8-3.4zM16.9.2c1 0 1.8.8 1.8 1.8s-.8 1.8-1.8 1.8S15.1 3 15.1 2 15.9.2 16.9.2zm0 3c.6 0 1.2-.5 1.2-1.2S17.6.8 16.9.8c-.6 0-1.2.5-1.2 1.2s.6 1.2 1.2 1.2zM19.4.3c0-.1.1-.1 0 0l.2-.1 2.1 2.2V.3c0-.1 0-.1.1-.1h.5c.1 0 .1 0 .1.1v3.4c0 .1 0 .1-.1.1h-.1l-2.1-2.3v2.2c0 .1 0 .1-.1.1h-.5c-.1 0-.1 0-.1-.1V.3zM24 0c.6 0 1.1.5 1.1 1.1 0 .6-.5 1.1-1.1 1.1-.6 0-1.1-.5-1.1-1.1C23 .5 23.4 0 24 0zm0 1.9c.5 0 .8-.4.8-.8 0-.5-.4-.8-.8-.8-.5 0-.8.4-.8.8s.4.8.8.8zM23.6.6c0-.1 0-.1 0 0l.5-.1c.2 0 .4.1.4.4 0 .2-.1.3-.2.3l.1.3v.1h-.2-.1l-.1-.4h-.2v.3s0 .1-.1.1h-.1s-.1 0-.1-.1V.6h.1zm.5.4c.1 0 .1-.1.1-.1 0-.1 0-.1-.1-.1h-.2V1h.2z"></path></g></g></svg>