<svg viewBox="0 0 13 14" height="14" width="13" xmlns="http://www.w3.org/2000/svg"> <g fill-rule="evenodd" fill="none"> <g fill="#000"> <g> <g> <path transform="translate(-181 -160) translate(0 52) translate(181 108.5)" d="M6.5 0c.513 0 .929.416.929.929L7.428 5.57h4.643c.513 0 .929.416.929.929 0 .513-.416.929-.929.929l-4.643-.001v4.643c0 .513-.415.929-.928.929-.513 0-.929-.416-.929-.929V7.428H.929C.416 7.429 0 7.014 0 6.5c0-.513.416-.929.929-.929H5.57V.929C5.571.416 5.987 0 6.5 0z"></path> </g> </g> </g> </g> </svg>